# xmcd CD database file
# Copyright (C) 1993-1998 Ti Kan
#
# Track frame offsets:
#	150
#	14805
#	33667
#	49735
#	60677
#	73500
#	93752
#	108182
#	125260
#	140415
#
# Disc length: 2033 seconds
#
# Revision: 1
# Processed by: cddbd v1.4b41PL1 Copyright (c) Steve Scherf et al.
# Submitted via: CDValet v3.31 - Copyright (c) 1997 Greg Leichner
#
DISCID=8707ef0a
DTITLE=Various Artist - Christmas For the 90's, Volume 3
DYEAR=1900
DGENRE=
TTITLE0=Christmas to Christmas (Tanya Tucker)
TTITLE1=White Christmas (Billy Dean)
TTITLE2=Shake Me, I Rattle (Lisa Brokop)
TTITLE3=Santa Claus Is Coming to Town (Chris Ledoux)
TTITLE4=I Heard the Bells On Christmas Day (Suzy Bogguss)
TTITLE5=What a Wonderful Beginning (Lisa Brokop)
TTITLE6=Mary Did You Know (Billy Dean)
TTITLE7=The Wonder (Tanya Tucker)
TTITLE8='Twas the Night Before Christmas (Chris Ledoux)
TTITLE9=Two-Step 'Round the Christmas Tree (Suzy Bogguss)
EXTD=
EXTT0=
EXTT1=
EXTT2=
EXTT3=
EXTT4=
EXTT5=
EXTT6=
EXTT7=
EXTT8=
EXTT9=
PLAYORDER=
